<svg viewBox="0 0 17 12" fill="black" xmlns="http://www.w3.org/2000/svg">
<path d="M6.38759 10.3015L3.29441 10.5084L3.31443 10.8077L6.40761 10.6008L6.38759 10.3015Z"/>
<path d="M15.3 11.1H14.8V10.8H15.3C15.6 10.8 16 10.8 16.1 10.8H16.2C16.3 10.8 16.3 10.7 16.3 10.6V10C16.3 9.9 16.3 9.9 16.2 9.8H16.1V9.7C16.1 9.2 16.1 9.1 16 8.7C15.9 8.5 14.3 7.9 13.8 7.7C13.5 7.5 12.9 7 12.4 6.5C12.2 6.3 12.1 6.2 11.9 6.1C11.4 5.6 10.6 5.4 9.6 5.4V10.9H12.9V11.2H9.2V5.1H9.39999C10.6 5.1 11.5 5.4 12.1 5.9C12.3 6 12.4 6.2 12.6 6.3C13.1 6.7 13.6 7.2 13.9 7.4C14.2 7.5 16.2 8.2 16.3 8.6C16.4 9.1 16.4 9.2 16.4 9.6C16.5 9.7 16.6 9.8 16.6 10V10.6C16.6 10.8 16.4 11 16.2 11.1H16.1C16 11.1 15.6 11.1 15.3 11.1Z"/>
<path fill-rule="evenodd" clip-rule="evenodd" d="M11.5 6C11.8 6.2 12 6.5 12.2 6.7C12.4 6.9 12.7 7.1 12.9 7.4C12.8 7.4 12.7 7.4 12.7 7.5C12.6 7.6 12.5 8 12.5 8.2C12.5 8.3 12.5 8.3 12.5 8.4H12.2C11.5 8.4 10.2 7.9 10.2 7.9V6.1H11.2C11.4 5.9 11.5 5.9 11.5 6Z"/>
<path fill-rule="evenodd" clip-rule="evenodd" d="M12.9 7.6C12.8 7.7 12.8 8 12.8 8.2V8.3H13.3C13.7 8.3 13.2 7.6 13.1 7.5C13 7.5 12.9 7.5 12.9 7.6Z"/>
<path fill-rule="evenodd" clip-rule="evenodd" d="M13.8 9.3C14.2 9.3 14.5 9.5 14.8 9.7C15.1 10 15.2 10.3 15.2 10.7V11.1H14.9C14.8 11.3 14.7 11.5 14.6 11.6C14.4 11.8 14.1 12 13.8 12C13.5 12 13.2 11.9 13 11.6C12.9 11.5 12.7 11.3 12.7 11.1H12.4V10.7C12.4 10.3 12.6 10 12.8 9.7C13 9.4 13.4 9.3 13.8 9.3ZM13.8 10C13.4 10 13.1 10.3 13.1 10.7C13.1 11.1 13.4 11.4 13.8 11.4C14.2 11.4 14.5 11.1 14.5 10.7C14.5 10.3 14.2 10 13.8 10Z"/>
<path fill-rule="evenodd" clip-rule="evenodd" d="M13.8 10.4C13.6 10.4 13.5 10.5 13.5 10.7C13.5 10.9 13.6 11 13.8 11C14 11 14.1 10.9 14.1 10.7C14.1 10.5 14 10.4 13.8 10.4Z"/>
<path d="M10.9 8.3H10.1V8.5H10.9V8.3Z"/>
<path fill-rule="evenodd" clip-rule="evenodd" d="M16.2 9.2C15.8 9 15.1 8.6 15 8.5C15 8.5 14.9 8.1 15 7.9C15.5 8.1 16.1 8.4 16.1 8.6C16.2 8.9 16.2 9 16.2 9.2Z"/>
<path fill-rule="evenodd" clip-rule="evenodd" d="M9.3 9.7H2.89999C2.69999 9.6 2.5 9.5 2.3 9.5C2.1 9.5 1.9 9.6 1.7 9.7H0C0 10.1 0 10.4 0 10.8H0.5V10.3H1.2C1.1 10.4 1.1 10.6 1.1 10.8C1.1 11.1 1.2 11.4 1.5 11.6C1.7 11.8 2 12 2.3 12C2.6 12 2.9 11.9 3.1 11.6C3.3 11.4 3.5 11.1 3.5 10.8C3.5 10.6 3.49999 10.5 3.39999 10.3H4.8L6.3 10.9H9.3V10.8C9.3 10.4 9.3 10 9.3 9.7ZM2.3 10C2.7 10 3 10.3 3 10.7C3 11.1 2.7 11.4 2.3 11.4C1.9 11.4 1.6 11.1 1.6 10.7C1.6 10.3 1.9 10 2.3 10Z"/>
<path fill-rule="evenodd" clip-rule="evenodd" d="M2.3 10.4C2.1 10.4 2 10.5 2 10.7C2 10.9 2.1 11 2.3 11C2.5 11 2.6 10.9 2.6 10.7C2.6 10.6 2.5 10.4 2.3 10.4Z"/>
<path fill-rule="evenodd" clip-rule="evenodd" d="M3.01411 2.6C3.00483 2.53522 3.00001 2.46852 3.00001 2.4C3.00001 1.49009 3.85035 0.900002 4.7 0.900002C5.54966 0.900002 6.4 1.49009 6.4 2.4C6.4 2.46852 6.39518 2.53522 6.3859 2.6H7.10001L8.00001 9.3H1.3L2.3 2.6H3.01411ZM4.00001 2.4C4.00001 2.20534 4.22418 1.9 4.7 1.9C5.17583 1.9 5.4 2.20534 5.4 2.4C5.4 2.46019 5.37857 2.53095 5.3349 2.6H4.06511C4.02144 2.53095 4.00001 2.46019 4.00001 2.4ZM5.43749 7.4109C5.56749 7.3709 5.67749 7.3309 5.76749 7.2909L5.63249 6.7609C5.59249 6.77757 5.53915 6.79757 5.47249 6.8209C5.40582 6.84424 5.33749 6.8559 5.26749 6.8559C5.19749 6.8559 5.13749 6.83757 5.08749 6.8009C5.04082 6.7609 5.01749 6.69424 5.01749 6.6009V5.3209H5.56749V4.8059H5.01749V3.9559H4.34749V4.8059H4.00249V5.3209H4.34749V6.8259C4.34749 6.94257 4.36582 7.04257 4.40249 7.1259C4.43915 7.2059 4.48749 7.27257 4.54749 7.3259C4.61082 7.3759 4.68249 7.41257 4.76249 7.4359C4.84582 7.45924 4.93415 7.4709 5.02749 7.4709C5.17082 7.4709 5.30749 7.4509 5.43749 7.4109Z"/>
</svg>
