<svg viewBox="0 0 15 10" fill="black" xmlns="http://www.w3.org/2000/svg">
<path d="M14.745 3.1V7.5C14.745 7.6 14.6451 7.7 14.5451 7.7C14.4451 7.7 14.345 7.6 14.345 7.5V3.1C14.345 3 14.4451 2.9 14.5451 2.9C14.6451 2.8 14.745 2.9 14.745 3.1Z"/>
<path d="M14.5451 7.8C14.3451 7.8 14.245 7.6 14.245 7.5V3.1C14.245 2.9 14.4451 2.8 14.5451 2.8C14.6451 2.8 14.845 3 14.845 3.1V7.5C14.845 7.6 14.7451 7.8 14.5451 7.8ZM14.5451 2.9C14.4451 2.9 14.4451 3 14.4451 3V7.4C14.4451 7.5 14.5451 7.5 14.5451 7.5C14.6451 7.5 14.6451 7.4 14.6451 7.4V3C14.6451 3 14.6451 2.9 14.5451 2.9Z"/>
<path d="M0.845048 9C0.845048 9.1 0.945053 9.1 1.04505 9.1H2.44505C2.54505 9.1 2.64505 9 2.64505 8.9V8H3.64505V9.5C3.64505 9.6 3.74505 9.7 3.94505 9.7H8.94505H9.04505L10.845 8.4H12.9451C13.0451 8.4 13.1451 8.3 13.1451 8.2V5.6H14.1451C14.2451 5.6 14.345 5.5 14.345 5.4C14.345 5.3 14.2451 5.2 14.1451 5.2H13.1451V3.2C13.1451 3.1 13.1451 3.1 13.0451 3C13.0451 3 12.945 2.9 12.845 2.9H11.745L10.9451 2C10.9451 2 10.845 1.9 10.745 1.9H9.54505V1.2H10.4451C10.5451 1.2 10.6451 1.1 10.6451 1C10.6451 0.9 10.5451 0.800003 10.4451 0.800003H7.44505H6.14505C6.04505 0.800003 5.94505 0.9 5.94505 1C5.94505 1.1 6.04505 1.2 6.14505 1.2H7.24505V2H5.64505C5.54505 2 5.54505 2 5.44505 2.1L4.64505 2.8L3.44505 2.7C3.34505 2.7 3.34505 2.7 3.24505 2.8C3.24505 2.8 3.14505 2.9 3.14505 3V4.5H2.64505V3.5C2.64505 3.4 2.54505 3.3 2.44505 3.3C2.44505 3.3 2.14505 3.3 1.84505 3.3C0.945048 3.3 0.845048 3.3 0.845048 3.3C0.745048 3.3 0.74505 3.4 0.74505 3.4C-0.55495 6.7 0.745048 8.9 0.845048 9ZM9.04505 2H7.64505V1.4H9.04505V2ZM0.74505 7.3C0.64505 6.5 0.545051 5.2 1.14505 3.7C1.24505 3.7 1.44505 3.7 1.94505 3.7C2.04505 3.7 2.14505 3.7 2.24505 3.7V4.7C2.24505 4.8 2.34505 4.9 2.44505 4.9H3.34505C3.44505 4.9 3.54505 4.8 3.54505 4.6V3.1H4.54505C4.64505 3.1 4.64505 3.1 4.74505 3.1L5.54505 2.3H10.6451L11.4451 3.1C11.4451 3.1 11.5451 3.2 11.6451 3.2H12.6451V7.7H10.745C10.745 7.7 10.6451 7.7 10.6451 7.8L8.84505 9.1H4.14505V7.5C4.14505 7.4 4.04505 7.3 3.94505 7.3H2.44505C2.34505 7.3 2.24505 7.4 2.24505 7.5V8.5H1.24505C1.04505 8.5 0.84505 8 0.74505 7.3Z"/>
<path d="M8.84504 9.8H3.84504C3.64504 9.8 3.44505 9.6 3.44505 9.5V8.1H2.64505L2.64505 8.9C2.64505 9.1 2.54504 9.2 2.34504 9.2H0.945049C0.845049 9.2 0.745046 9.1 0.645046 9C0.545046 8.9 -0.754954 6.6 0.645046 3.3C0.645046 3.2 0.745043 3.1 0.845043 3.1C0.945043 3.1 0.94505 3.1 1.94505 3.1H2.54505C2.74505 3.1 2.84504 3.2 2.84504 3.4V4.3H3.14505V2.9C3.14505 2.8 3.14505 2.7 3.24504 2.7C3.34504 2.6 3.34505 2.6 3.44505 2.6L4.54505 2.7L5.24504 1.9C5.34504 1.8 5.44505 1.8 5.44505 1.8H6.94505V1.4H5.94505C5.84505 1.4 5.74504 1.4 5.74504 1.3C5.64504 1.2 5.64505 1.2 5.64505 1.1C5.64505 0.899998 5.74505 0.800003 5.94505 0.800003L7.44505 0.800003L10.245 0.800003C10.345 0.800003 10.445 0.800002 10.445 0.900002C10.545 1 10.545 1.1 10.545 1.1C10.545 1.3 10.445 1.4 10.245 1.4H9.44505V1.8H10.545C10.645 1.8 10.745 1.8 10.745 1.9L11.545 2.7H12.645C12.745 2.7 12.845 2.7 12.845 2.8C12.945 2.9 12.945 3 12.945 3.1V5H13.845C14.045 5 14.145 5.1 14.145 5.3C14.145 5.5 14.045 5.6 13.845 5.6H12.945V8.1C12.945 8.3 12.845 8.4 12.645 8.4H10.645L8.94505 9.7C8.94505 9.8 8.94504 9.8 8.84504 9.8ZM2.54505 7.9H3.74504V9.5C3.74504 9.6 3.84505 9.6 3.94505 9.6H9.04505L10.845 8.2H12.945C13.045 8.2 13.045 8.1 13.045 8.1V5.4H14.145C14.245 5.4 14.245 5.4 14.245 5.3C14.245 5.2 14.1451 5.2 14.1451 5.2H13.045L13.0451 3H11.645L10.845 2.1C10.845 2.1 10.845 2.1 10.745 2.1H9.54505V2H9.44505C9.44505 2 9.44505 2 9.44505 1.9V1.2H10.4451C10.5451 1.2 10.545 1.1 10.545 1.1V1H6.14505C6.04505 1 6.04505 1.1 6.04505 1.1V1.2H6.14505H7.34504V2H5.64505C5.54505 2 5.54505 2 5.54505 2L4.74504 2.8L3.54505 2.7H3.44505L3.44505 4.4H2.74504V3.3C2.74504 3.2 2.64505 3.2 2.64505 3.2H2.04505C1.24505 3.2 1.04505 3.2 1.04505 3.2C1.04505 3.2 0.945049 3.2 0.945049 3.3C-0.454951 6.5 0.945049 8.7 0.945049 8.8L1.04505 8.9H2.44505C2.54505 8.9 2.54505 8.8 2.54505 8.8V7.9ZM8.74504 9.4H3.94505V7.7C3.94505 7.7 3.94504 7.6 3.84504 7.6H2.34504C2.24504 7.6 2.24504 7.7 2.24504 7.7V8.8H1.04505V8.7C0.945048 8.5 0.745046 8 0.645046 7.3C0.545046 6.5 0.445048 5.2 1.04505 3.6V3.5H1.14505C1.24505 3.5 1.44505 3.5 1.94505 3.5C2.04505 3.5 2.14505 3.5 2.24504 3.5H2.34504V4.6C2.34504 4.7 2.44505 4.7 2.44505 4.8H3.44505C3.54505 4.8 3.54505 4.7 3.54505 4.6L3.54505 3H4.64505C4.74505 3 4.74504 3 4.74504 3L5.54505 2.2H10.545L11.345 3.1C11.345 3.1 11.3451 3.1 11.4451 3.1H12.545V7.8H10.545C10.545 7.8 10.545 7.8 10.445 7.8L8.74504 9.4ZM4.24504 9.2H8.74504L10.445 7.9C10.545 7.9 10.5451 7.8 10.6451 7.8H12.445V3.5H11.545C11.445 3.5 11.345 3.5 11.345 3.4L10.645 2.6H5.74504L5.04505 3.4C4.94505 3.5 4.84504 3.5 4.74504 3.5H3.84504V4.9C3.84504 5.1 3.64505 5.3 3.54505 5.3H2.54505C2.34505 5.3 2.24504 5.1 2.24504 5V4.1C2.14505 4.1 2.14505 4.1 2.04505 4.1C1.64505 4.1 1.44504 4.1 1.34504 4.1C0.745043 5.6 0.845049 6.8 0.945049 7.6C1.04505 8.2 1.24504 8.6 1.34504 8.8H2.24504V7.9C2.24504 7.7 2.34505 7.6 2.54505 7.6H4.04505C4.24505 7.6 4.34504 7.7 4.34504 7.9V9.2H4.24504ZM9.04505 2.1H7.54505V1.3H9.14505V1.9H9.04505V2.1ZM7.74504 1.9H8.94505V1.5H7.74504V1.9Z"/>
<path d="M8.04505 4.9C8.04505 5.4 8.44505 5.9 9.04505 5.9C9.54505 5.9 10.0451 5.5 10.0451 4.9C10.0451 4.4 9.64505 3.9 9.04505 3.9C8.44505 3.9 8.04505 4.4 8.04505 4.9ZM8.44505 4.9C8.44505 4.6 8.64505 4.4 8.94505 4.4C9.24505 4.4 9.44505 4.6 9.44505 4.9C9.44505 5.2 9.24505 5.4 8.94505 5.4C8.74505 5.4 8.44505 5.2 8.44505 4.9Z"/>
<path d="M8.94505 6C8.34505 6 7.84505 5.5 7.84505 4.9C7.84505 4.3 8.34505 3.8 8.94505 3.8C9.54505 3.8 10.0451 4.3 10.0451 4.9C10.0451 5.5 9.54505 6 8.94505 6ZM8.94505 4C8.44505 4 8.04505 4.4 8.04505 4.9C8.04505 5.4 8.44505 5.8 8.94505 5.8C9.44505 5.8 9.84505 5.4 9.84505 4.9C9.84505 4.4 9.44505 4 8.94505 4ZM8.94505 5.5C8.64505 5.5 8.34505 5.2 8.34505 4.9C8.34505 4.6 8.64505 4.3 8.94505 4.3C9.24505 4.3 9.54505 4.6 9.54505 4.9C9.54505 5.2 9.34505 5.5 8.94505 5.5ZM8.94505 4.5C8.74505 4.5 8.54505 4.7 8.54505 4.9C8.54505 5.1 8.74505 5.3 8.94505 5.3C9.14505 5.3 9.34505 5.1 9.34505 4.9C9.34505 4.7 9.24505 4.5 8.94505 4.5Z"/>
<path d="M6.44505 7.4C6.44505 7.2 6.24505 7 6.04505 7C5.84505 7 5.64505 7.2 5.64505 7.4C5.64505 7.6 5.84505 7.8 6.04505 7.8C6.24505 7.8 6.44505 7.7 6.44505 7.4ZM6.14505 7.4C6.14505 7.5 6.14505 7.5 6.14505 7.4C6.04505 7.5 6.04505 7.4 6.04505 7.4C6.04505 7.4 6.04505 7.4 6.14505 7.4Z"/>
<path d="M6.04505 7.9C5.74505 7.9 5.54505 7.7 5.54505 7.4C5.54505 7.1 5.74505 6.9 6.04505 6.9C6.34505 6.9 6.54505 7.1 6.54505 7.4C6.54505 7.7 6.34505 7.9 6.04505 7.9ZM6.04505 7.1C5.84505 7.1 5.74505 7.2 5.74505 7.4C5.74505 7.6 5.84505 7.7 6.04505 7.7C6.24505 7.7 6.34505 7.6 6.34505 7.4C6.34505 7.2 6.24505 7.1 6.04505 7.1ZM6.04505 7.6C5.94505 7.6 5.84505 7.5 5.84505 7.4C5.84505 7.3 5.94505 7.2 6.04505 7.2C6.14505 7.2 6.24505 7.3 6.24505 7.4C6.24505 7.5 6.14505 7.6 6.04505 7.6ZM6.04505 7.4C6.14505 7.5 6.04505 7.5 6.04505 7.4Z"/>
<path d="M6.54505 4.9C5.24505 6.3 4.74504 7 4.84504 7.4C4.84504 8.1 5.34505 8.6 6.04505 8.6H6.14505C6.44505 8.6 7.14504 8.2 8.74504 7C8.84504 6.9 8.94505 6.9 9.04505 6.8C9.84505 6.2 10.645 5.7 10.745 5.1C10.845 4.7 10.745 4.2 10.445 3.8C10.145 3.3 9.54505 3.1 8.94505 3.1C8.84505 3.1 8.64505 3.1 8.54505 3.1C7.94505 3.2 7.34505 4 6.64505 4.7L6.54505 4.9ZM5.24504 7.4C5.24504 7.2 5.54504 6.7 6.84504 5.2L6.94505 5.1C7.54505 4.4 8.14505 3.7 8.64505 3.6C8.74505 3.6 8.84505 3.6 8.94505 3.6C9.34505 3.6 9.74505 3.8 10.045 4.2C10.245 4.5 10.345 4.8 10.245 5.1C10.245 5.5 9.44504 6.1 8.74504 6.5C8.64504 6.6 8.54505 6.6 8.44505 6.7C7.84505 7.1 6.34505 8.1 6.04505 8.2H5.94505C5.54505 8.2 5.34504 7.8 5.24504 7.4Z"/>
<path d="M6.04505 8.8C5.24505 8.8 4.74505 8.3 4.74505 7.5C4.74505 7 5.24505 6.3 6.54505 4.9L6.64505 4.8C7.34505 4 8.04505 3.29999 8.64505 3.19999C9.34505 2.99999 10.1451 3.3 10.6451 3.9C10.9451 4.3 11.0451 4.8 10.9451 5.3C10.8451 5.9 10.045 6.5 9.24505 7.1L8.94505 7.3C7.24505 8.5 6.64505 8.8 6.24505 8.9L6.04505 8.8ZM9.04505 3.3C8.94505 3.3 8.74505 3.3 8.64505 3.3C8.04505 3.4 7.44505 4.1 6.74505 4.9L6.64505 5C5.44505 6.4 4.94505 7.1 4.94505 7.4C4.94505 8.1 5.44505 8.5 6.04505 8.5C6.04505 8.5 6.04505 8.5 6.14505 8.5C6.14505 8.5 6.14505 8.5 6.24505 8.5C6.54505 8.5 7.24505 8.1 8.84505 7L9.14505 6.8C9.94505 6.2 10.745 5.7 10.845 5.1C10.945 4.7 10.8451 4.2 10.5451 3.9C10.0451 3.5 9.54505 3.3 9.04505 3.3ZM6.04505 8.3C5.44505 8.3 5.14505 7.9 5.14505 7.4C5.14505 7.3 5.14505 7 6.84505 5.1L6.94505 5C7.54505 4.3 8.24505 3.6 8.74505 3.5C9.34505 3.4 9.94505 3.6 10.245 4.1C10.445 4.4 10.5451 4.8 10.4451 5.1C10.3451 5.6 9.64505 6.1 8.84505 6.6L8.54505 6.8C7.14505 7.8 6.34505 8.3 6.04505 8.3ZM5.34505 7.4C5.34505 7.7 5.54505 8.1 6.04505 8.1C6.14505 8.1 6.64505 7.79999 8.34505 6.69999L8.64505 6.5C9.24505 6.1 10.0451 5.5 10.1451 5.1C10.1451 5.1 10.1451 5.1 10.1451 5C10.245 4.7 10.1451 4.39999 9.94505 4.19999C9.64505 3.79999 9.14505 3.59999 8.64505 3.69999C8.24505 3.79999 7.54505 4.5 7.04505 5.1L6.94505 5.19999C5.54505 6.89999 5.34505 7.3 5.34505 7.4Z"/>
</svg>
