<svg viewBox="0 0 25 12" fill="black" xmlns="http://www.w3.org/2000/svg">
<path fill-rule="evenodd" clip-rule="evenodd" d="M12.55 7.6H10.05C9.25 7.6 9.05 7.9 9.05 7.9L9.35 8.1C9.35 8.1 9.45 8 9.95 8V8.5H11.95V8H12.55V7.6Z"/>
<path fill-rule="evenodd" clip-rule="evenodd" d="M17.75 8.2H0.950005V9.4H1.15L0.650002 9.7V9.4H0.25V10.4H0.650002V10.1L1.35 9.6H2.55V9.2H3.95C4.05 9.1 4.25 9 4.45 9C4.65 9 4.85 9.1 4.95 9.2H7.75C7.85 9.1 8.05 9 8.25 9C8.45 9 8.65 9.1 8.75 9.2H17.25V9C17.45 8.7 17.55 8.4 17.75 8.2Z"/>
<path fill-rule="evenodd" clip-rule="evenodd" d="M14.05 8.9H11.05V9.8C11.05 10 11.15 10.1 11.35 10.1H13.65C13.85 10.1 13.95 10 13.95 9.8V9.6H14.15C14.15 9.8 14.35 10 14.55 10C14.75 10 14.85 9.9 14.95 9.7H15.65C15.75 9.9 15.85 10 16.05 10C16.25 10 16.45 9.8 16.45 9.6H16.65V10.1H17.55V8.9H16.65V9.1H14.05V8.9Z"/>
<path fill-rule="evenodd" clip-rule="evenodd" d="M3.35 11.2C3.05 10.9 2.85 10.6 2.85 10.1H2.45V10C2.45 9.4 2.65 8.8 3.05 8.5C3.45 8.1 3.95 7.9 4.55 7.9C5.25 7.9 5.75 8.1 6.05 8.5C6.25 8.7 6.35 8.9 6.45 9.1C6.55 8.9 6.65 8.6 6.85 8.5C7.25 8.1 7.75 7.9 8.35 7.9C9.05 7.9 9.55 8.1 9.85 8.5C10.25 8.9 10.45 9.4 10.45 10V10.2H10.05C10.05 10.6 9.85 11 9.55 11.3C9.25 11.6 8.85 11.8 8.35 11.8C7.85 11.8 7.45 11.6 7.15 11.3C6.85 11 6.65 10.7 6.65 10.2H6.15C6.15 10.6 5.95 11 5.65 11.3C5.35 11.6 4.95 11.8 4.45 11.8C4.05 11.7 3.65 11.5 3.35 11.2ZM8.45 9.1C7.95 9.1 7.65 9.5 7.65 9.9C7.65 10.4 8.05 10.7 8.45 10.7C8.95 10.7 9.25 10.3 9.25 9.9C9.25 9.5 8.95 9.1 8.45 9.1ZM4.55 9.1C4.05 9.1 3.75 9.5 3.75 9.9C3.75 10.4 4.15 10.7 4.55 10.7C4.95 10.7 5.35 10.3 5.35 9.9C5.35 9.5 5.05 9.1 4.55 9.1Z"/>
<path d="M22.95 10.5H21.65C21.55 10.4 21.45 10.4 21.45 10.3L21.65 10C21.75 10 21.75 10.1 21.85 10.2H22.95L23.85 10V8.8L23.55 8H23.85V6.4C23.85 5.8 23.45 4.6 23.15 3.7C23.05 3.4 22.95 3.1 22.95 2.9C22.85 2.5 22.15 2.3 21.05 2.3H18.65V7.5H18.35V2H21.05C22.35 2 23.05 2.3 23.25 2.9C23.35 3.1 23.35 3.4 23.45 3.7C23.75 4.7 24.15 5.9 24.15 6.5V8.4H23.95L24.15 8.9V10.4L22.95 10.5Z"/>
<path fill-rule="evenodd" clip-rule="evenodd" d="M23.85 5.8C23.75 5 23.35 3.7 23.05 3H22.65L23.25 5.7C23.25 5.6 23.55 5.7 23.85 5.8Z"/>
<path fill-rule="evenodd" clip-rule="evenodd" d="M17.95 10.3V9.4C17.95 8.5 18.65 7.8 19.55 7.8H19.85C20.85 7.8 21.75 8.6 21.75 9.7V10.3H21.45C21.35 10.6 21.25 10.9 20.95 11.2C20.65 11.5 20.25 11.7 19.75 11.7C19.25 11.7 18.85 11.5 18.55 11.2C18.15 11 18.05 10.7 17.95 10.3ZM19.65 9.1C19.15 9.1 18.85 9.5 18.85 9.9C18.85 10.4 19.25 10.7 19.65 10.7C20.15 10.7 20.45 10.3 20.45 9.9C20.45 9.5 20.15 9.1 19.65 9.1Z"/>
<path d="M22.15 10.4H21.55V9.7C21.55 8.7 20.75 7.9 19.75 7.9H19.45C18.65 7.9 17.95 8.6 17.95 9.4V10.4H17.25V9C17.25 7.9 18.25 6.9 19.35 6.9H19.65C20.95 6.9 22.15 8.1 22.15 9.3V10.4ZM21.75 10.2H21.95V9.4C21.95 8.3 20.85 7.2 19.65 7.2H19.35C18.45 7.2 17.55 8.1 17.55 9V10.2H17.85V9.4C17.85 8.5 18.65 7.7 19.55 7.7H19.85C20.95 7.7 21.85 8.6 21.85 9.7V10.2H21.75Z"/>
<path fill-rule="evenodd" clip-rule="evenodd" d="M19.65 9.5C19.35 9.5 19.15 9.7 19.15 10C19.15 10.3 19.35 10.5 19.65 10.5C19.95 10.5 20.15 10.3 20.15 10C20.15 9.7 19.95 9.5 19.65 9.5Z"/>
<path fill-rule="evenodd" clip-rule="evenodd" d="M20.55 2C19.65 1.5 19.05 1.3 18.25 1.3C18.05 1.3 17.95 1.4 17.95 1.6C17.85 3.2 17.75 4.8 17.65 6.4V8.8C17.75 8.2 18.05 7.7 18.55 7.4C18.55 5.6 18.55 3.8 18.55 2H20.55Z"/>
<path d="M23.85 8.7H23.25V9.8H23.85V8.7Z"/>
<path d="M23.45 9H22.05V9.2H23.45V9Z"/>
<path d="M20.75 6.4H20.05V6.6H20.75V6.4Z"/>
<path d="M23.45 9.6H22.05V9.8H23.45V9.6Z"/>
<path d="M23.85 6.4H23.45V7.5H23.85V6.4Z"/>
<path fill-rule="evenodd" clip-rule="evenodd" d="M22.05 3.2H20.05V4.7C20.05 4.9 20.15 5 20.35 5L22.65 5.4V5.2C22.55 5.2 22.55 5.3 22.45 5.3H22.35C22.15 5.3 22.05 5.2 22.05 5V3.5C22.05 3.3 22.05 3.3 22.05 3.2ZM22.45 3.2C22.55 3.2 22.65 3.3 22.65 3.4V4.9C22.65 5 22.55 5.1 22.45 5.1H22.35C22.25 5.1 22.15 5 22.15 4.9V3.4C22.15 3.3 22.25 3.2 22.45 3.2Z"/>
<path d="M8.45 10.5C8.72615 10.5 8.95 10.2761 8.95 10C8.95 9.72386 8.72615 9.5 8.45 9.5C8.17386 9.5 7.95 9.72386 7.95 10C7.95 10.2761 8.17386 10.5 8.45 10.5Z"/>
<path fill-rule="evenodd" clip-rule="evenodd" d="M4.55 9.5C4.25 9.5 4.05 9.7 4.05 10C4.05 10.3 4.25 10.5 4.55 10.5C4.85 10.5 5.05 10.3 5.05 10C5.05 9.7 4.75 9.5 4.55 9.5Z"/>
<path fill-rule="evenodd" clip-rule="evenodd" d="M16.2 7.05V6.8H16.7V7.55H15.95V7.05H16.2Z"/>
<path fill-rule="evenodd" clip-rule="evenodd" d="M1.73929 7.55H1.25V7.05H1.73929V7.55ZM3.69643 7.55H2.71786V7.05H3.69643V7.55ZM5.65357 7.55H4.675V7.05H5.65357V7.55ZM7.61072 7.55H6.63214V7.05H7.61072V7.55ZM9.56786 7.55H8.58929V7.05H9.56786V7.55ZM11.525 7.55H10.5464V7.05H11.525V7.55ZM13.4821 7.55H12.5036V7.05H13.4821V7.55ZM14.95 7.55H14.4607V7.05H14.95V7.55Z"/>
<path fill-rule="evenodd" clip-rule="evenodd" d="M0.5 7.05V6.8H0V7.55H0.75V7.05H0.5Z"/>
<path fill-rule="evenodd" clip-rule="evenodd" d="M0 1.59167V1.2H0.5V1.59167H0ZM0 3.15833V2.375H0.5V3.15833H0ZM0 4.725V3.94167H0.5V4.725H0ZM0 5.9V5.50834H0.5V5.9H0Z"/>
<path fill-rule="evenodd" clip-rule="evenodd" d="M0 0.0499992H0.75V0.549999H0.5V0.799999H0V0.0499992Z"/>
<path fill-rule="evenodd" clip-rule="evenodd" d="M2.23929 0.549999H1.75V0.0499992H2.23929V0.549999ZM4.19643 0.549999H3.21786V0.0499992H4.19643V0.549999ZM6.15357 0.549999H5.175V0.0499992H6.15357V0.549999ZM8.11072 0.549999H7.13214V0.0499992H8.11072V0.549999ZM10.0679 0.549999H9.08929V0.0499992H10.0679V0.549999ZM12.025 0.549999H11.0464V0.0499992H12.025V0.549999ZM13.9821 0.549999H13.0036V0.0499992H13.9821V0.549999ZM15.45 0.549999H14.9607V0.0499992H15.45V0.549999Z"/>
<path fill-rule="evenodd" clip-rule="evenodd" d="M16.2 0.549999H15.95V0.0499992H16.7V0.799999H16.2V0.549999Z"/>
<path fill-rule="evenodd" clip-rule="evenodd" d="M16.2 1.99167V1.6H16.7V1.99167H16.2ZM16.2 3.55833V2.775H16.7V3.55833H16.2ZM16.2 5.125V4.34167H16.7V5.125H16.2ZM16.2 6.3V5.90834H16.7V6.3H16.2Z"/>
</svg>
