<svg viewBox="0 0 40 49" fill="black" xmlns="http://www.w3.org/2000/svg">
<path d="M5.59496 21.828L6.3058 25.4841C6.30736 25.4924 6.31204 25.4987 6.31464 25.5065C6.3162 25.5127 6.31516 25.519 6.31724 25.5252L7.69888 29.2219C7.70044 29.2266 7.70564 29.2286 7.70772 29.2328C7.71136 29.2416 7.71136 29.25 7.71604 29.2583L9.72688 32.8333C9.72948 32.838 9.73468 32.84 9.7378 32.8442C9.74196 32.8515 9.74352 32.8593 9.74872 32.8655L12.1865 35.9938C12.1906 35.9996 12.1969 36.0011 12.201 36.0058C12.2068 36.012 12.2094 36.0198 12.2156 36.0256L14.9576 38.5444C14.9643 38.5512 14.9737 38.5533 14.981 38.559C14.9877 38.5642 14.9919 38.571 14.9992 38.5751L17.8633 40.3015C17.8701 40.3057 17.8784 40.3046 17.8852 40.3078C17.8982 40.315 17.9091 40.3239 17.9242 40.3286L20.6869 41.1408C20.7108 41.1486 20.7353 41.1517 20.7592 41.1517C20.7592 41.1517 20.7597 41.1517 20.7602 41.1517C20.7665 41.1517 20.7727 41.1517 20.7795 41.1507L23.2578 40.9676C23.2952 40.965 23.3301 40.9541 23.3608 40.937C23.3613 40.9364 23.3628 40.937 23.3634 40.9359L25.3945 39.819C25.4278 39.8008 25.4543 39.7763 25.4761 39.7477C25.4766 39.7467 25.4782 39.7462 25.4787 39.7451L26.941 37.7546C26.9586 37.7306 26.9685 37.7041 26.9768 37.6781C26.9779 37.675 26.9815 37.6729 26.9826 37.6698L27.2056 36.8586L27.7542 34.9081C27.7574 34.8972 27.7553 34.8857 27.7568 34.8748C27.7584 34.8639 27.7641 34.8535 27.7641 34.8415L27.8047 31.5307C27.8047 31.5213 27.8005 31.5135 27.7995 31.5036C27.7984 31.4943 27.8016 31.486 27.7995 31.4766L27.0684 27.8205C27.0668 27.8132 27.0621 27.808 27.06 27.8012C27.058 27.794 27.0595 27.7877 27.0569 27.781L25.6758 24.0635C25.6732 24.0567 25.6675 24.052 25.6649 24.0453C25.6618 24.039 25.6618 24.0323 25.6586 24.026L23.6478 20.4713C23.6447 20.4656 23.639 20.4625 23.6358 20.4578C23.6322 20.4521 23.6312 20.4458 23.627 20.4401L21.1892 17.2915C21.1846 17.2853 21.1778 17.2822 21.1721 17.277C21.1669 17.2712 21.1643 17.264 21.1591 17.2588L18.3968 14.7399C18.3901 14.7336 18.3818 14.7316 18.3745 14.7264C18.3677 14.7212 18.3636 14.7144 18.3563 14.7097L15.5327 13.0036C15.5223 12.9974 15.5114 12.9968 15.501 12.9922C15.4906 12.9875 15.4822 12.9797 15.4708 12.9766L13.3814 12.3682L12.7106 12.1648C12.6914 12.1591 12.6716 12.1607 12.6519 12.1596C12.6404 12.1586 12.63 12.1539 12.6186 12.1544L10.12 12.3167C10.1179 12.3167 10.1164 12.3177 10.1143 12.3182C10.0976 12.3198 10.082 12.3266 10.0649 12.3312C10.0477 12.3364 10.03 12.3396 10.0144 12.3474C10.0129 12.3484 10.0108 12.3484 10.0092 12.3489L7.97812 13.4867C7.97708 13.4872 7.97656 13.4882 7.97552 13.4888C7.96096 13.4971 7.94952 13.5106 7.93652 13.522C7.92352 13.5335 7.90844 13.5434 7.89804 13.5569C7.89752 13.5574 7.89648 13.5579 7.89596 13.559L6.43372 15.5495C6.42384 15.563 6.4202 15.5792 6.41292 15.5937C6.40616 15.6072 6.3968 15.6182 6.39264 15.6332L5.62096 18.3752C5.61784 18.3866 5.61992 18.3981 5.61836 18.41C5.6168 18.4215 5.61108 18.4319 5.61108 18.4438L5.5908 21.775C5.5908 21.7843 5.59496 21.7916 5.596 21.8004C5.596 21.8108 5.5934 21.8192 5.59496 21.828ZM6.8804 15.8204L8.28128 13.9136L10.2115 12.8325L12.6046 12.677L12.9857 12.7925L12.5063 14.497C12.5032 14.5085 12.5052 14.5194 12.5037 14.5308C12.5021 14.5418 12.4964 14.5522 12.4964 14.5641L12.4558 17.875C12.4558 17.8848 12.46 17.8926 12.461 17.902C12.4621 17.9114 12.459 17.9202 12.461 17.9296L13.1922 21.5654C13.1937 21.5732 13.1984 21.5784 13.2005 21.5862C13.202 21.5924 13.201 21.5982 13.2031 21.6044L14.5842 25.3422C14.5858 25.3474 14.5915 25.3494 14.5936 25.3541C14.5972 25.363 14.5972 25.3718 14.6019 25.3801L16.6127 28.9348C16.6153 28.9395 16.6205 28.9411 16.6236 28.9458C16.6278 28.9525 16.6294 28.9603 16.6346 28.9671L19.0926 32.1157C19.0968 32.1209 19.103 32.123 19.1072 32.1271C19.1129 32.1334 19.1155 32.1412 19.1217 32.1469L21.8642 34.6658C21.8715 34.6725 21.8798 34.6751 21.8876 34.6803C21.8944 34.6855 21.8985 34.6923 21.9053 34.6964L24.7289 36.4026C24.7356 36.4067 24.7434 36.4052 24.7507 36.4088C24.7637 36.4161 24.7757 36.4254 24.7908 36.4301L26.6373 36.9673L26.4948 37.4873L25.0944 39.3926L23.1632 40.4549L20.7888 40.6296L18.1046 39.8403L15.2909 38.144L12.5838 35.6579L10.171 32.5613L8.17988 29.0217L6.81228 25.364L6.11028 21.7547L6.13056 18.4839L6.8804 15.8204ZM15.2919 13.4669L18.064 15.1418L20.7914 17.6285L23.2048 20.7454L25.1953 24.2642L26.5624 27.9437L27.2842 31.552L27.2446 34.8015L26.7766 36.466L24.9691 35.9398L22.197 34.2638L19.4894 31.7772L17.0568 28.6608L15.0662 25.1425L13.6986 21.4422L12.9769 17.8536L13.0164 14.6047L13.4844 12.9402L15.2919 13.4669Z"/>
<path d="M0.76416 22.1884C0.565 22.3106 0.471919 22.5503 0.536399 22.7749L1.79584 27.1622C1.83068 27.2844 1.90972 27.3899 2.01684 27.4575L5.96988 29.9676L8.21576 33.9424L8.25528 38.6011C8.25632 38.7301 8.3052 38.8533 8.39204 38.9485L11.4798 42.3202C11.5807 42.4299 11.7211 42.4886 11.8636 42.4886C11.9421 42.4886 12.0211 42.471 12.0944 42.4346L14.826 41.0784L17.8384 42.875L20.716 47.8363C20.7977 47.9772 20.9407 48.0708 21.1019 48.0911L24.2099 48.477C24.2312 48.4801 24.2526 48.4811 24.2739 48.4811C24.3612 48.4811 24.447 48.4593 24.5235 48.4172L31.1857 44.761L38.0586 40.8569C38.1511 40.8038 38.2255 40.7243 38.2712 40.6281L39.6118 37.8045C39.683 37.6547 39.6784 37.479 39.5993 37.3334L36.8605 32.293L36.8964 28.7965L39.4932 27.2199C39.6929 27.0987 39.7865 26.859 39.7236 26.6344L38.4844 22.2466C38.4496 22.1228 38.3695 22.0168 38.2614 21.9481L34.2896 19.4386L32.0624 15.4845L32.0037 10.8035C32.0021 10.6756 31.9532 10.5534 31.8669 10.4587L28.7792 7.08704C28.6783 6.9768 28.5379 6.91804 28.3959 6.91804C28.3169 6.91804 28.2363 6.93624 28.1624 6.97368L25.434 8.347L22.4211 6.514L19.5424 1.57036C19.4608 1.42996 19.3183 1.33584 19.1571 1.31608L16.049 0.930239C16.0277 0.927639 16.0064 0.926079 15.9851 0.926079C15.8972 0.926079 15.8109 0.948439 15.7334 0.991079L9.09144 4.66748L2.20196 8.54928C2.10784 8.60232 2.03296 8.68292 1.98668 8.78068L0.64612 11.6246C0.57488 11.7748 0.5806 11.9496 0.65964 12.0952L3.39796 17.1152L3.36208 20.5925L0.76416 22.1884ZM4.01624 21.1062C4.02508 21.101 4.02924 21.0927 4.03704 21.0865C4.05108 21.0756 4.06408 21.0641 4.07552 21.0506C4.08644 21.0381 4.09528 21.0246 4.10308 21.0106C4.11088 20.9965 4.11764 20.982 4.12336 20.9664C4.12908 20.9492 4.1322 20.9326 4.13428 20.9144C4.13532 20.905 4.14 20.8967 4.14 20.8873L4.18056 16.9873C4.18056 16.9826 4.17796 16.9785 4.17796 16.9738C4.17744 16.9561 4.17224 16.94 4.16808 16.9223C4.1634 16.9052 4.15976 16.8885 4.15248 16.8729C4.1504 16.8688 4.15092 16.8636 4.14832 16.8599L1.40844 11.8367L2.5722 9.36776L6.41032 11.583C6.42956 11.5939 6.45296 11.5939 6.47428 11.5996C6.49612 11.6058 6.51744 11.6173 6.5398 11.6173C6.58192 11.6173 6.62456 11.6069 6.66408 11.5856L9.08104 10.2653C9.17568 10.2133 9.2256 10.1114 9.21468 10.01C9.21468 10.0079 9.21624 10.0058 9.21624 10.0032L9.33064 5.61752L12.0461 5.95292L14.905 10.9158C14.905 10.9163 14.9056 10.9168 14.9056 10.9168L14.9061 10.9184C14.9076 10.9215 14.9118 10.9226 14.9139 10.9262C14.9352 10.9595 14.9612 10.9902 14.9976 11.0115L15.0023 11.0141L18.3677 13.041L18.3693 13.0421C18.3698 13.0426 18.3708 13.0421 18.3719 13.0426C18.4083 13.0644 18.4504 13.0748 18.4925 13.0764C18.4962 13.0764 18.4993 13.079 18.5029 13.079C18.5414 13.079 18.5804 13.0702 18.6178 13.052L21.4492 11.6552L24.3378 14.8096L24.3774 19.5036C24.3774 19.5078 24.38 19.5119 24.38 19.5161C24.3805 19.5213 24.3784 19.526 24.3789 19.5312C24.3794 19.5348 24.3826 19.539 24.3831 19.5426C24.3846 19.5514 24.3888 19.5587 24.3909 19.567C24.3956 19.5837 24.3992 19.6003 24.4065 19.6154C24.4086 19.6196 24.4086 19.6248 24.4112 19.6284L26.7876 23.8326C26.7896 23.8357 26.7928 23.8373 26.7948 23.8404C26.8151 23.8732 26.8406 23.9033 26.8749 23.9252L30.8742 26.4518L32.0515 30.5536L29.3642 32.1926L29.3631 32.1932L29.3569 32.1973C29.348 32.2025 29.3439 32.2103 29.3361 32.216C29.3226 32.227 29.3101 32.2368 29.2992 32.2493C29.294 32.2545 29.2882 32.2592 29.2841 32.2644C29.2773 32.2732 29.2747 32.2826 29.27 32.292C29.2617 32.3055 29.2555 32.3185 29.2498 32.3336C29.2477 32.3408 29.243 32.3466 29.2414 32.3538C29.2383 32.3648 29.2394 32.3767 29.2378 32.3882C29.2368 32.3975 29.2321 32.4058 29.2321 32.4157L29.1915 36.3157C29.1915 36.3209 29.1941 36.3251 29.1941 36.3292C29.1946 36.335 29.1926 36.3402 29.1936 36.3459C29.1946 36.3578 29.2014 36.3703 29.2045 36.3823C29.2092 36.3984 29.2123 36.4145 29.2191 36.4296C29.2212 36.4338 29.2212 36.4384 29.2232 36.4421L29.2253 36.4462L31.9444 41.4668L30.815 43.9374L26.9623 41.6998C26.9524 41.6936 26.9425 41.6936 26.9326 41.6894C26.916 41.6821 26.9004 41.6764 26.8827 41.6722C26.8661 41.6691 26.85 41.6681 26.8328 41.6681C26.8167 41.6681 26.8006 41.6681 26.7844 41.6712C26.7668 41.6748 26.7512 41.6806 26.7345 41.6873C26.7241 41.6915 26.7137 41.6915 26.7038 41.6972L24.3072 43.0378C24.2994 43.0424 24.2952 43.0492 24.2884 43.0539C24.2718 43.0653 24.2562 43.0778 24.2432 43.0929C24.2323 43.1038 24.2245 43.1168 24.2162 43.1298C24.2073 43.1444 24.1995 43.1584 24.1933 43.1745C24.187 43.1917 24.1834 43.2083 24.1813 43.227C24.1798 43.2374 24.1746 43.2452 24.174 43.2556L24.0217 47.6642L21.3239 47.3293L18.4431 42.3623C18.4405 42.3576 18.4364 42.3555 18.4338 42.3514C18.4244 42.3378 18.4124 42.3264 18.401 42.3144C18.388 42.302 18.376 42.2884 18.361 42.2786C18.3573 42.276 18.3552 42.2718 18.3511 42.2692L14.9794 40.2584C14.9716 40.2542 14.9628 40.2537 14.955 40.25C14.9378 40.2417 14.9217 40.236 14.904 40.2318C14.8879 40.2277 14.8718 40.2256 14.8556 40.2251C14.8395 40.2246 14.8244 40.2256 14.8083 40.2277C14.7896 40.2308 14.7724 40.236 14.7542 40.2422C14.7464 40.2454 14.7381 40.2448 14.7308 40.249L11.9202 41.6447L9.03216 38.4909L8.99264 33.7974C8.99264 33.7922 8.99004 33.788 8.99004 33.7838C8.989 33.7672 8.98432 33.7511 8.97964 33.7344C8.97496 33.7173 8.9708 33.7001 8.96352 33.684C8.96144 33.6798 8.96144 33.6752 8.95884 33.6715L6.58244 29.4668C6.58088 29.4632 6.57724 29.4616 6.57516 29.458C6.5658 29.4434 6.5528 29.4309 6.54084 29.4184C6.52888 29.406 6.51796 29.393 6.50444 29.3836C6.50132 29.3815 6.49924 29.3774 6.49612 29.3753L2.51708 26.8486L1.33928 22.7458L4.01624 21.1062ZM16.0397 1.7144L18.2793 1.9926L12.1548 5.4428L9.925 5.16772L16.0397 1.7144ZM37.6025 40.2194L31.5071 43.682L32.4374 41.6468L38.5572 38.2096L37.6025 40.2194ZM32.3391 41.1054L29.8036 36.4228L36.2375 32.7787L38.7918 37.4805L32.3391 41.1054ZM29.7526 32.5743L36.1153 28.952L36.081 32.2701L29.7183 35.8737L29.7526 32.5743ZM32.5164 30.2863L31.4052 26.4134L37.8246 22.7775L38.9181 26.65L32.5164 30.2863ZM31.1056 25.9849L27.5218 23.7208L33.8944 20.112L37.4782 22.3761L31.1056 25.9849ZM27.1146 23.3537L24.9941 19.6024L31.4468 15.9775L33.5486 19.7095L27.1146 23.3537ZM31.2835 15.4726L24.8958 19.0611L24.8599 14.8605L31.2304 11.2528L31.2835 15.4726ZM24.6504 14.3816L21.9235 11.403L28.3455 7.76616L31.0724 10.7447L24.6504 14.3816ZM18.5092 12.52L15.6492 10.7972L22.0342 7.19104L24.8963 8.932L18.5092 12.52ZM15.2295 10.4364L12.5645 5.8094L18.9985 2.18448L21.6822 6.79272L15.2295 10.4364ZM8.70196 9.84356L6.54292 11.0593L2.98352 9.0048L8.8096 5.72256L8.70196 9.84356ZM24.6909 43.4246L26.8312 42.2276L30.3308 44.2603L24.5495 47.5082L24.6909 43.4246Z"/>
</svg>
