<svg viewBox="0 0 26 13" fill="black" xmlns="http://www.w3.org/2000/svg">
<path d="M17.3 1.5L1 7.4V7.2L17.2 1.3L17.3 1.5Z"/>
<path d="M16.4836 0.979043L16.3954 1.15856L17.1135 1.5112L17.2017 1.33168L16.4836 0.979043Z"/>
<path d="M17.1049 1.42526L16.7523 2.14335L16.9318 2.23151L17.2844 1.51342L17.1049 1.42526Z"/>
<path d="M1.38633 6.42836L1.03368 7.14644L1.2132 7.2346L1.56585 6.51652L1.38633 6.42836Z"/>
<path d="M1.07088 7.19434L0.982719 7.37386L1.7008 7.7265L1.78896 7.54698L1.07088 7.19434Z"/>
<path d="M18.3 8.6H0V0.300003H18.3V8.6ZM0.300003 8.3H17.9V0.600003H0.300003V8.3Z"/>
<path d="M16.6 8.4H14V9.2H16.6V8.4Z"/>
<path d="M5.6 8.4H3V9.2H5.6V8.4Z"/>
<path fill-rule="evenodd" clip-rule="evenodd" d="M18.8 8.9H2.1V10H2.3L1.9 10.4V10.1H1.5V11.1H1.9V10.8L2.6 10.3H3.8V10H5.2C5.3 9.9 5.5 9.8 5.7 9.8C5.9 9.8 6.1 9.9 6.2 10H9C9.1 9.9 9.3 9.8 9.5 9.8C9.7 9.8 9.9 9.9 10 10H18.5V9.7C18.6 9.4 18.7 9.2 18.8 8.9Z"/>
<path fill-rule="evenodd" clip-rule="evenodd" d="M15.1 9.6H12.1V10.5C12.1 10.7 12.2 10.8 12.4 10.8H14.8C15 10.8 15.1 10.7 15.1 10.5V10.3H15.3C15.3 10.5 15.5 10.7 15.7 10.7C15.9 10.7 16 10.6 16.1 10.4H16.6C16.7 10.6 16.8 10.7 17 10.7C17.2 10.7 17.4 10.5 17.4 10.3H17.5V10.8H18.4V9.6H17.5V9.8H14.9V9.6H15.1Z"/>
<path fill-rule="evenodd" clip-rule="evenodd" d="M4.5 11.9C4.2 11.6 4 11.3 4 10.8H3.6V10.6C3.6 10 3.8 9.4 4.2 9.1C4.6 8.7 5.1 8.5 5.7 8.5C6.4 8.5 6.9 8.7 7.2 9.1C7.4 9.3 7.5 9.5 7.6 9.7C7.7 9.5 7.8 9.2 8 9.1C8.4 8.7 8.9 8.5 9.5 8.5C10.2 8.5 10.7 8.7 11 9.1C11.4 9.5 11.6 10 11.6 10.6V10.8H11.2C11.2 11.2 11 11.6 10.7 11.9C10.4 12.2 10 12.4 9.5 12.4C9 12.4 8.6 12.2 8.3 11.9C8 11.6 7.8 11.3 7.8 10.8H7.2C7.2 11.2 7 11.6 6.7 11.9C6.4 12.2 6 12.4 5.5 12.4C5.2 12.4 4.8 12.2 4.5 11.9ZM9.6 9.8C9.1 9.8 8.8 10.2 8.8 10.6C8.8 11 9.2 11.4 9.6 11.4C10 11.4 10.4 11 10.4 10.6C10.4 10.2 10 9.8 9.6 9.8ZM5.7 9.8C5.2 9.8 4.9 10.2 4.9 10.6C4.9 11 5.3 11.4 5.7 11.4C6.2 11.4 6.5 11 6.5 10.6C6.5 10.2 6.1 9.8 5.7 9.8Z"/>
<path d="M24 11.2H22.7C22.6 11.1 22.5 11.1 22.5 11L22.7 10.7C22.8 10.7 22.8 10.8 22.9 10.9H24L24.9 10.7V9.5L24.6 8.7H24.9V7C24.9 6.4 24.5 5.2 24.2 4.3C24.1 4 24 3.7 24 3.5C23.9 3 23.2 2.8 22.1 2.8H19.7V8H19.4V2.5H22.1C23.4 2.5 24.1 2.8 24.3 3.4C24.4 3.6 24.4 3.9 24.5 4.2C24.8 5.2 25.2 6.4 25.2 7V8.9H25L25.2 9.4V10.9L24 11.2Z"/>
<path fill-rule="evenodd" clip-rule="evenodd" d="M25 6.5C24.9 5.7 24.5 4.4 24.2 3.7H23.8L24.4 6.4C24.4 6.4 24.7 6.4 25 6.5Z"/>
<path fill-rule="evenodd" clip-rule="evenodd" d="M19 11V10.1C19 9.2 19.7 8.5 20.6 8.5H20.9C21.9 8.5 22.8 9.3 22.8 10.4V11H22.5C22.4 11.3 22.3 11.6 22 11.9C21.7 12.2 21.3 12.4 20.8 12.4C20.3 12.4 19.9 12.2 19.6 11.9C19.3 11.7 19.2 11.4 19 11ZM20.8 9.8C20.3 9.8 20 10.2 20 10.6C20 11 20.4 11.4 20.8 11.4C21.3 11.4 21.6 11 21.6 10.6C21.6 10.2 21.3 9.8 20.8 9.8Z"/>
<path d="M23.3 11.1H22.7V10.4C22.7 9.4 21.9 8.6 20.9 8.6H20.6C19.8 8.6 19.1 9.3 19.1 10.1V11.1H18.4V9.7C18.4 8.6 19.4 7.6 20.5 7.6H20.8C22.1 7.6 23.3 8.8 23.3 10V11.1ZM22.9 10.9H23.1V10.1C23.1 9 22 7.9 20.8 7.9H20.5C19.6 7.9 18.7 8.8 18.7 9.7V10.9H18.9V10.1C18.9 9.2 19.7 8.4 20.6 8.4H20.9C22 8.4 22.9 9.3 22.9 10.4V10.9Z"/>
<path fill-rule="evenodd" clip-rule="evenodd" d="M20.8 10.2C20.5 10.2 20.3 10.4 20.3 10.7C20.3 11 20.5 11.2 20.8 11.2C21.1 11.2 21.3 11 21.3 10.7C21.2 10.4 21 10.2 20.8 10.2Z"/>
<path fill-rule="evenodd" clip-rule="evenodd" d="M21.7 2.7C20.8 2.1 20.2 2 19.3 2C19.1 2 19 2.1 19 2.3C18.9 3.9 18.8 5.5 18.7 7.1V9.5C18.8 8.9 19.1 8.4 19.6 8.1C19.6 6.3 19.6 4.5 19.6 2.7H21.7Z"/>
<path d="M25 9.4H24.4V10.5H25V9.4Z"/>
<path d="M24.6 9.8H23.2V10H24.6V9.8Z"/>
<path d="M21.9 7.1H21.2V7.3H21.9V7.1Z"/>
<path d="M24.6 10.3H23.2V10.5H24.6V10.3Z"/>
<path d="M25 7.1H24.6V8.2H25V7.1Z"/>
<path fill-rule="evenodd" clip-rule="evenodd" d="M23.2 3.9H21.2V5.4C21.2 5.6 21.3 5.7 21.5 5.7L23.8 6.1L23.7 5.8C23.6 5.8 23.6 5.9 23.5 5.9H23.4C23.2 5.9 23.1 5.8 23.1 5.6V4.1C23.2 4 23.2 4 23.2 3.9ZM23.6 3.9C23.7 3.9 23.8 4 23.8 4.1V5.6C23.8 5.7 23.7 5.8 23.6 5.8H23.5C23.4 5.8 23.3 5.7 23.3 5.6V4.1C23.3 4 23.4 3.9 23.6 3.9Z"/>
<path fill-rule="evenodd" clip-rule="evenodd" d="M9.6 10.2C9.3 10.2 9.1 10.4 9.1 10.7C9.1 11 9.3 11.2 9.6 11.2C9.9 11.2 10.1 11 10.1 10.7C10 10.4 9.8 10.2 9.6 10.2Z"/>
<path fill-rule="evenodd" clip-rule="evenodd" d="M5.7 10.2C5.4 10.2 5.2 10.4 5.2 10.7C5.2 11 5.4 11.2 5.7 11.2C6 11.2 6.2 11 6.2 10.7C6.1 10.4 5.9 10.2 5.7 10.2Z"/>
</svg>
